<svg width="212" height="41" viewBox="0 0 212 41" fill="none" xmlns="http://www.w3.org/2000/svg">
<path d="M54.6746 40.7683V9.47937H67.0974C71.6169 9.47937 73.8651 11.7507 73.8651 16.2934V25.3093C73.8651 29.8519 71.6169 32.1233 67.0974 32.1233H59.7272V40.7451L54.6746 40.7683ZM59.704 27.7197H66.8193C68.1636 27.7197 68.8589 27.0475 68.8589 25.7264V15.853C68.8589 14.5088 68.1868 13.8135 66.8193 13.8135H59.704V27.7197Z" fill="white"/>
<path d="M85.6158 32.1233C81.0731 32.1233 78.8018 29.8751 78.8018 25.402C78.8018 20.9288 81.0731 18.6806 85.6158 18.6806H92.314V15.853C92.314 14.5088 91.6418 13.8135 90.2744 13.8135H81.1195V11.1481L83.3676 9.45618H90.5293C95.0488 9.45618 97.297 11.7275 97.297 16.2702V32.1001L85.6158 32.1233ZM83.8312 25.7496C83.8312 27.0707 84.4801 27.7428 85.8244 27.7428H92.2908V22.7366H85.8244C84.5033 22.7366 83.8312 23.4087 83.8312 24.7298V25.7496Z" fill="white"/>
<path d="M103.439 32.1233V13.3499C103.439 12.4228 103.833 11.5421 104.528 10.9395C105.664 9.96607 107.263 9.47935 109.326 9.47935L116.163 9.45618L116.14 11.1481V13.8135H110.23C110.068 13.8135 109.905 13.8135 109.766 13.8366C109.025 13.9293 108.468 14.6015 108.468 15.3431V32.1001L103.439 32.1233Z" fill="white"/>
<path d="M121.216 9.47937H130.626C135.145 9.47937 137.393 11.7507 137.393 16.2934V32.1233H125.689C121.146 32.1233 118.875 29.8751 118.875 25.402C118.875 20.9288 121.146 18.6806 125.689 18.6806H132.387V15.853C132.387 14.5088 131.715 13.8135 130.347 13.8135H121.193L121.216 9.47937ZM123.927 25.7496C123.927 27.0707 124.576 27.7428 125.921 27.7428H132.387V22.7366H125.921C124.6 22.7366 123.927 23.4087 123.927 24.7298V25.7496Z" fill="white"/>
<path d="M81.1196 9.45618H90.5294C95.0489 9.45618 97.2971 11.7275 97.2971 16.2702V32.1001H85.5927C81.05 32.1001 78.7787 29.8519 78.7787 25.3788C78.7787 20.9056 81.05 18.6574 85.5927 18.6574H92.2909V15.8299C92.2909 14.4856 91.6187 13.7903 90.2513 13.7903H81.0964L81.1196 9.45618ZM83.8313 25.7264C83.8313 27.0475 84.4802 27.7197 85.8245 27.7197H92.2909V22.7134H85.8245C84.5034 22.7134 83.8313 23.3856 83.8313 24.7066V25.7264Z" fill="white"/>
<path d="M143.512 24.6139V0.208496H148.565V25.1469C148.565 26.9779 149.515 27.9977 151.415 28.16V32.5172C146.154 32.5172 143.512 29.8751 143.512 24.6139Z" fill="white"/>
<path d="M156.12 24.6139V0.208496H161.173V25.1469C161.173 26.9779 162.123 27.9977 164.024 28.16V32.5172C158.762 32.5172 156.12 29.8751 156.12 24.6139Z" fill="white"/>
<path d="M170.026 9.47937H179.436C183.956 9.47937 186.204 11.7507 186.204 16.2934V32.1233H174.5C169.957 32.1233 167.686 29.8751 167.686 25.402C167.686 20.9288 169.957 18.6806 174.5 18.6806H181.198V15.853C181.198 14.5088 180.526 13.8135 179.158 13.8135H170.026V9.47937ZM172.738 25.7496C172.738 27.0707 173.41 27.7428 174.731 27.7428H181.198V22.7366H174.731C173.41 22.7366 172.738 23.4087 172.738 24.7298V25.7496Z" fill="white"/>
<path d="M189.889 32.1233L198.14 20.6507L190.098 9.47937H191.141H195.753L200.921 16.896L206.09 9.47937H210.748H211.745L203.749 20.6507L212 32.1233H210.957H206.345L200.898 24.4054L195.498 32.1233H190.839H189.889Z" fill="white"/>
<path d="M27.6966 33.7225L20.4653 40.9537V0L27.7197 7.2544" fill="white"/>
<path d="M20.4653 1.85527L20.5348 39.402L1.62239 20.4896L20.4653 1.64668V1.85527ZM20.4653 0.024292L0 20.4896L20.4653 40.9549V0.024292Z" fill="white"/>
<path d="M28.8554 2.80442L46.5394 20.4885L28.8554 38.1725V2.80442V2.80442ZM27.6965 0V40.9537L48.1618 20.4885L27.6965 0Z" fill="white"/>
</svg>
